<svg width="66" height="65" viewBox="0 0 66 65" fill="none" xmlns="http://www.w3.org/2000/svg">
<path opacity="0.05" d="M8 11.4815H58" stroke="#E2E8F0" stroke-width="0.05"/>
<path opacity="0.05" d="M8 16.1111H58" stroke="#E2E8F0" stroke-width="0.05"/>
<path opacity="0.05" d="M8 20.7408H58" stroke="#E2E8F0" stroke-width="0.05"/>
<path opacity="0.05" d="M8 25.3704H58" stroke="#E2E8F0" stroke-width="0.05"/>
<path opacity="0.05" d="M8 30H58" stroke="#E2E8F0" stroke-width="0.05"/>
<path opacity="0.05" d="M8 39.2593H58" stroke="#E2E8F0" stroke-width="0.05"/>
<path opacity="0.05" d="M8 43.8889H58" stroke="#E2E8F0" stroke-width="0.05"/>
<path opacity="0.05" d="M8 48.5186H58" stroke="#E2E8F0" stroke-width="0.05"/>
<path opacity="0.05" d="M8 34.6296H58" stroke="#E2E8F0" stroke-width="0.05"/>
<path opacity="0.05" d="M46.8889 5L46.8929 55" stroke="#E2E8F0" stroke-width="0.05"/>
<path opacity="0.05" d="M51.5186 5L51.5226 55" stroke="#E2E8F0" stroke-width="0.05"/>
<path opacity="0.05" d="M56.1482 5L56.1522 55" stroke="#E2E8F0" stroke-width="0.05"/>
<path opacity="0.05" d="M14.4814 5L14.4854 55" stroke="#E2E8F0" stroke-width="0.05"/>
<path opacity="0.05" d="M9.85181 5L9.8558 55" stroke="#E2E8F0" stroke-width="0.05"/>
<path opacity="0.05" d="M42.2593 5.00037L42.2633 55.0004" stroke="#E2E8F0" stroke-width="0.05"/>
<path opacity="0.05" d="M37.6296 5.00076L37.6336 55.0008" stroke="#E2E8F0" stroke-width="0.05"/>
<path opacity="0.05" d="M33 5.00113L33.004 55.0011" stroke="#E2E8F0" stroke-width="0.05"/>
<path opacity="0.05" d="M28.3704 5.0015L28.3744 55.0015" stroke="#E2E8F0" stroke-width="0.05"/>
<path opacity="0.05" d="M19.1111 5.00223L19.1151 55.0022" stroke="#E2E8F0" stroke-width="0.05"/>
<path opacity="0.05" d="M23.7407 5.00186L23.7447 55.0019" stroke="#E2E8F0" stroke-width="0.05"/>
<g filter="url(#filter0_di_1555_118)">
<g clip-path="url(#clip0_1555_118)">
<rect x="8" y="5" width="50" height="50" rx="9.25928" fill="url(#paint0_linear_1555_118)"/>
<g opacity="0.1" filter="url(#filter1_f_1555_118)">
<ellipse cx="33.1158" cy="14.2799" rx="9.61576" ry="6.06788" fill="white"/>
</g>
<path opacity="0.05" d="M8 11.4815H58" stroke="#E2E8F0" stroke-width="0.0500001"/>
<path opacity="0.05" d="M8 16.1111H58" stroke="#E2E8F0" stroke-width="0.0500001"/>
<path opacity="0.05" d="M8 20.7408H58" stroke="#E2E8F0" stroke-width="0.0500001"/>
<path opacity="0.05" d="M8 25.3704H58" stroke="#E2E8F0" stroke-width="0.0500001"/>
<path opacity="0.05" d="M8 30H58" stroke="#E2E8F0" stroke-width="0.0500001"/>
<path opacity="0.05" d="M8 39.2593H58" stroke="#E2E8F0" stroke-width="0.0500001"/>
<path opacity="0.05" d="M8 43.8889H58" stroke="#E2E8F0" stroke-width="0.0500001"/>
<path opacity="0.05" d="M8 48.5186H58" stroke="#E2E8F0" stroke-width="0.0500001"/>
<path opacity="0.05" d="M8 34.6296H58" stroke="#E2E8F0" stroke-width="0.0500001"/>
<path opacity="0.05" d="M46.8889 5L46.8929 55" stroke="#E2E8F0" stroke-width="0.0500001"/>
<path opacity="0.05" d="M51.5186 5L51.5226 55" stroke="#E2E8F0" stroke-width="0.0500001"/>
<path opacity="0.05" d="M56.1482 5L56.1522 55" stroke="#E2E8F0" stroke-width="0.0500001"/>
<path opacity="0.05" d="M14.4814 5L14.4854 55" stroke="#E2E8F0" stroke-width="0.0500001"/>
<path opacity="0.05" d="M9.85181 5L9.8558 55" stroke="#E2E8F0" stroke-width="0.0500001"/>
<path opacity="0.05" d="M42.2593 5.00037L42.2633 55.0004" stroke="#E2E8F0" stroke-width="0.0500001"/>
<path opacity="0.05" d="M37.6296 5.00076L37.6336 55.0008" stroke="#E2E8F0" stroke-width="0.0500001"/>
<path opacity="0.05" d="M33 5.0011L33.004 55.0011" stroke="#E2E8F0" stroke-width="0.0500001"/>
<path opacity="0.05" d="M28.3704 5.00146L28.3744 55.0015" stroke="#E2E8F0" stroke-width="0.0500001"/>
<path opacity="0.05" d="M19.1111 5.0022L19.1151 55.0022" stroke="#E2E8F0" stroke-width="0.0500001"/>
<path opacity="0.05" d="M23.7407 5.00186L23.7447 55.0019" stroke="#E2E8F0" stroke-width="0.0500001"/>
<path d="M19 43.925H46.5V16.425H19V43.925Z" fill="black"/>
</g>
</g>
<defs>
<filter id="filter0_di_1555_118" x="0.499987" y="-8.58307e-06" width="65" height="65" filterUnits="userSpaceOnUse" color-interpolation-filters="sRGB">
<feFlood flood-opacity="0" result="BackgroundImageFix"/>
<feColorMatrix in="SourceAlpha" type="matrix" values="0 0 0 0 0 0 0 0 0 0 0 0 0 0 0 0 0 0 127 0" result="hardAlpha"/>
<feOffset dy="2.5"/>
<feGaussianBlur stdDeviation="3.75001"/>
<feComposite in2="hardAlpha" operator="out"/>
<feColorMatrix type="matrix" values="0 0 0 0 0 0 0 0 0 0 0 0 0 0 0 0 0 0 0.1 0"/>
<feBlend mode="normal" in2="BackgroundImageFix" result="effect1_dropShadow_1555_118"/>
<feBlend mode="normal" in="SourceGraphic" in2="effect1_dropShadow_1555_118" result="shape"/>
<feColorMatrix in="SourceAlpha" type="matrix" values="0 0 0 0 0 0 0 0 0 0 0 0 0 0 0 0 0 0 127 0" result="hardAlpha"/>
<feOffset dy="2.5"/>
<feGaussianBlur stdDeviation="3.75001"/>
<feComposite in2="hardAlpha" operator="arithmetic" k2="-1" k3="1"/>
<feColorMatrix type="matrix" values="0 0 0 0 1 0 0 0 0 1 0 0 0 0 1 0 0 0 0.05 0"/>
<feBlend mode="normal" in2="shape" result="effect2_innerShadow_1555_118"/>
</filter>
<filter id="filter1_f_1555_118" x="16.4" y="1.11205" width="33.4316" height="26.3358" filterUnits="userSpaceOnUse" color-interpolation-filters="sRGB">
<feFlood flood-opacity="0" result="BackgroundImageFix"/>
<feBlend mode="normal" in="SourceGraphic" in2="BackgroundImageFix" result="shape"/>
<feGaussianBlur stdDeviation="3.55001" result="effect1_foregroundBlur_1555_118"/>
</filter>
<linearGradient id="paint0_linear_1555_118" x1="33" y1="5" x2="33" y2="55" gradientUnits="userSpaceOnUse">
<stop stop-color="#27272A"/>
<stop offset="1" stop-color="#18181B"/>
</linearGradient>
<clipPath id="clip0_1555_118">
<rect x="8" y="5" width="50" height="50" rx="9.25928" fill="white"/>
</clipPath>
</defs>
</svg>
