<svg width="65" height="65" viewBox="0 0 65 65" fill="none" xmlns="http://www.w3.org/2000/svg">
<g filter="url(#filter0_d_52_128)">
<g clip-path="url(#clip0_52_128)">
<g opacity="0.1" filter="url(#filter1_f_52_128)">
<ellipse cx="32.9037" cy="14.4086" rx="9.43925" ry="5.95649" fill="white"/>
</g>
<path opacity="0.05" d="M8.24878 18.262H108.249" stroke="#E2E8F0" stroke-width="0.1"/>
<path opacity="0.05" d="M8.24878 27.5212H108.249" stroke="#E2E8F0" stroke-width="0.1"/>
<path opacity="0.05" d="M8.24878 36.7805H108.249" stroke="#E2E8F0" stroke-width="0.1"/>
<path opacity="0.05" d="M8.24878 46.0398H108.249" stroke="#E2E8F0" stroke-width="0.1"/>
<path opacity="0.05" d="M21.2117 5.29907L21.2197 105.299" stroke="#E2E8F0" stroke-width="0.1"/>
<path opacity="0.05" d="M11.9525 5.29907L11.9605 105.299" stroke="#E2E8F0" stroke-width="0.1"/>
<path opacity="0.05" d="M48.9895 5.302L48.9975 105.302" stroke="#E2E8F0" stroke-width="0.1"/>
<path opacity="0.05" d="M30.4709 5.30347L30.4789 105.303" stroke="#E2E8F0" stroke-width="0.1"/>
<path opacity="0.05" d="M39.7303 5.30273L39.7383 105.303" stroke="#E2E8F0" stroke-width="0.1"/>
<g filter="url(#filter2_d_52_128)">
<g filter="url(#filter3_i_52_128)">
<path d="M46.533 29.5948C46.533 37.0493 40.4899 43.0924 33.0354 43.0924C25.5809 43.0924 19.5378 37.0493 19.5378 29.5948C19.5378 22.1402 25.5809 16.0972 33.0354 16.0972C44.2384 16.0972 37.8946 29.5948 46.533 29.5948Z" fill="url(#paint0_linear_52_128)"/>
</g>
<path d="M46.3822 29.7434C46.3026 37.0466 40.3575 42.9424 33.0354 42.9424C25.6637 42.9424 19.6878 36.9664 19.6878 29.5948C19.6878 22.2231 25.6637 16.2471 33.0354 16.2471C35.8025 16.2471 37.4619 17.0787 38.5434 18.3053C39.6331 19.5413 40.1536 21.196 40.601 22.8844C40.6586 23.1017 40.715 23.3198 40.7713 23.5376C41.1487 24.9968 41.5228 26.443 42.2281 27.5656C42.6365 28.2155 43.1586 28.7627 43.8604 29.1464C44.5295 29.5121 45.3533 29.7245 46.3822 29.7434Z" stroke="url(#paint1_linear_52_128)" stroke-width="0.299947"/>
<mask id="mask0_52_128" style="mask-type:alpha" maskUnits="userSpaceOnUse" x="19" y="16" width="28" height="28">
<path d="M46.533 29.5948C46.533 37.0493 40.4899 43.0924 33.0354 43.0924C25.5809 43.0924 19.5378 37.0493 19.5378 29.5948C19.5378 22.1402 25.5809 16.0972 33.0354 16.0972C44.2384 16.0972 37.8946 29.5948 46.533 29.5948Z" fill="url(#paint2_linear_52_128)"/>
</mask>
<g mask="url(#mask0_52_128)">
<g opacity="0.05">
<circle cx="20.3996" cy="16.3844" r="0.287254" fill="#71717A"/>
<circle cx="21.9791" cy="16.3844" r="0.287254" fill="#71717A"/>
<circle cx="23.5585" cy="16.3844" r="0.287254" fill="#71717A"/>
<circle cx="25.138" cy="16.3844" r="0.287254" fill="#71717A"/>
<circle cx="26.7174" cy="16.3844" r="0.287254" fill="#71717A"/>
<circle cx="28.297" cy="16.3844" r="0.287254" fill="#71717A"/>
<circle cx="29.8765" cy="16.3844" r="0.287254" fill="#71717A"/>
<circle cx="31.456" cy="16.3844" r="0.287254" fill="#71717A"/>
<circle cx="33.0354" cy="16.3844" r="0.287254" fill="#71717A"/>
<circle cx="34.6149" cy="16.3844" r="0.287254" fill="#71717A"/>
<circle cx="36.1944" cy="16.3844" r="0.287254" fill="#71717A"/>
<circle cx="37.7739" cy="16.3844" r="0.287254" fill="#71717A"/>
<circle cx="39.3534" cy="16.3844" r="0.287254" fill="#71717A"/>
<circle cx="40.933" cy="16.3844" r="0.287254" fill="#71717A"/>
<circle cx="42.5122" cy="16.3844" r="0.287254" fill="#71717A"/>
<circle cx="44.0918" cy="16.3844" r="0.287254" fill="#71717A"/>
<circle cx="45.6712" cy="16.3844" r="0.287254" fill="#71717A"/>
<circle cx="20.3997" cy="17.7127" r="0.287254" fill="#71717A"/>
<circle cx="21.9793" cy="17.7127" r="0.287254" fill="#71717A"/>
<circle cx="23.5586" cy="17.7127" r="0.287254" fill="#71717A"/>
<circle cx="25.1381" cy="17.7127" r="0.287254" fill="#71717A"/>
<circle cx="26.7176" cy="17.7127" r="0.287254" fill="#71717A"/>
<circle cx="28.2971" cy="17.7127" r="0.287254" fill="#71717A"/>
<circle cx="29.8766" cy="17.7127" r="0.287254" fill="#71717A"/>
<circle cx="31.4561" cy="17.7127" r="0.287254" fill="#71717A"/>
<circle cx="33.0355" cy="17.7127" r="0.287254" fill="#71717A"/>
<circle cx="34.6151" cy="17.7127" r="0.287254" fill="#71717A"/>
<circle cx="36.1945" cy="17.7127" r="0.287254" fill="#71717A"/>
<circle cx="37.7741" cy="17.7127" r="0.287254" fill="#71717A"/>
<circle cx="39.3535" cy="17.7127" r="0.287254" fill="#71717A"/>
<circle cx="40.9331" cy="17.7127" r="0.287254" fill="#71717A"/>
<circle cx="42.5124" cy="17.7127" r="0.287254" fill="#71717A"/>
<circle cx="44.0919" cy="17.7127" r="0.287254" fill="#71717A"/>
<circle cx="45.6713" cy="17.7127" r="0.287254" fill="#71717A"/>
<circle cx="20.3997" cy="19.041" r="0.287254" fill="#71717A"/>
<circle cx="21.9793" cy="19.041" r="0.287254" fill="#71717A"/>
<circle cx="23.5586" cy="19.0409" r="0.287254" fill="#71717A"/>
<circle cx="25.1381" cy="19.0409" r="0.287254" fill="#71717A"/>
<circle cx="26.7176" cy="19.041" r="0.287254" fill="#71717A"/>
<circle cx="28.2971" cy="19.041" r="0.287254" fill="#71717A"/>
<circle cx="29.8766" cy="19.041" r="0.287254" fill="#71717A"/>
<circle cx="31.4561" cy="19.041" r="0.287254" fill="#71717A"/>
<circle cx="33.0355" cy="19.0409" r="0.287254" fill="#71717A"/>
<circle cx="34.6151" cy="19.0409" r="0.287254" fill="#71717A"/>
<circle cx="36.1945" cy="19.041" r="0.287254" fill="#71717A"/>
<circle cx="37.7741" cy="19.041" r="0.287254" fill="#71717A"/>
<circle cx="39.3535" cy="19.041" r="0.287254" fill="#71717A"/>
<circle cx="40.9331" cy="19.041" r="0.287254" fill="#71717A"/>
<circle cx="42.5124" cy="19.0409" r="0.287254" fill="#71717A"/>
<circle cx="44.0919" cy="19.0409" r="0.287254" fill="#71717A"/>
<circle cx="45.6713" cy="19.041" r="0.287254" fill="#71717A"/>
<circle cx="20.3997" cy="20.3692" r="0.287254" fill="#71717A"/>
<circle cx="21.9793" cy="20.3692" r="0.287254" fill="#71717A"/>
<circle cx="23.5586" cy="20.369" r="0.287254" fill="#71717A"/>
<circle cx="25.1381" cy="20.369" r="0.287254" fill="#71717A"/>
<circle cx="26.7176" cy="20.3692" r="0.287254" fill="#71717A"/>
<circle cx="28.2971" cy="20.3692" r="0.287254" fill="#71717A"/>
<circle cx="29.8766" cy="20.3692" r="0.287254" fill="#71717A"/>
<circle cx="31.4561" cy="20.3692" r="0.287254" fill="#71717A"/>
<circle cx="33.0355" cy="20.369" r="0.287254" fill="#71717A"/>
<circle cx="34.6151" cy="20.369" r="0.287254" fill="#71717A"/>
<circle cx="36.1945" cy="20.3692" r="0.287254" fill="#71717A"/>
<circle cx="37.7741" cy="20.3692" r="0.287254" fill="#71717A"/>
<circle cx="39.3535" cy="20.3692" r="0.287254" fill="#71717A"/>
<circle cx="40.9331" cy="20.3692" r="0.287254" fill="#71717A"/>
<circle cx="42.5124" cy="20.369" r="0.287254" fill="#71717A"/>
<circle cx="44.0919" cy="20.369" r="0.287254" fill="#71717A"/>
<circle cx="45.6713" cy="20.3692" r="0.287254" fill="#71717A"/>
<circle cx="20.3997" cy="21.6975" r="0.287254" fill="#71717A"/>
<circle cx="21.9793" cy="21.6975" r="0.287254" fill="#71717A"/>
<circle cx="23.5586" cy="21.6974" r="0.287254" fill="#71717A"/>
<circle cx="25.1381" cy="21.6974" r="0.287254" fill="#71717A"/>
<circle cx="26.7176" cy="21.6975" r="0.287254" fill="#71717A"/>
<circle cx="28.2971" cy="21.6975" r="0.287254" fill="#71717A"/>
<circle cx="29.8766" cy="21.6975" r="0.287254" fill="#71717A"/>
<circle cx="31.4561" cy="21.6975" r="0.287254" fill="#71717A"/>
<circle cx="33.0355" cy="21.6974" r="0.287254" fill="#71717A"/>
<circle cx="34.6151" cy="21.6974" r="0.287254" fill="#71717A"/>
<circle cx="36.1945" cy="21.6975" r="0.287254" fill="#71717A"/>
<circle cx="37.7741" cy="21.6975" r="0.287254" fill="#71717A"/>
<circle cx="39.3535" cy="21.6975" r="0.287254" fill="#71717A"/>
<circle cx="40.9331" cy="21.6975" r="0.287254" fill="#71717A"/>
<circle cx="42.5124" cy="21.6974" r="0.287254" fill="#71717A"/>
<circle cx="44.0919" cy="21.6974" r="0.287254" fill="#71717A"/>
<circle cx="45.6713" cy="21.6975" r="0.287254" fill="#71717A"/>
<circle cx="20.3997" cy="23.0258" r="0.287254" fill="#71717A"/>
<circle cx="21.9793" cy="23.0258" r="0.287254" fill="#71717A"/>
<circle cx="23.5586" cy="23.0257" r="0.287254" fill="#71717A"/>
<circle cx="25.1381" cy="23.0257" r="0.287254" fill="#71717A"/>
<circle cx="26.7176" cy="23.0258" r="0.287254" fill="#71717A"/>
<circle cx="28.2971" cy="23.0258" r="0.287254" fill="#71717A"/>
<circle cx="29.8766" cy="23.0258" r="0.287254" fill="#71717A"/>
<circle cx="31.4561" cy="23.0258" r="0.287254" fill="#71717A"/>
<circle cx="33.0355" cy="23.0257" r="0.287254" fill="#71717A"/>
<circle cx="34.6151" cy="23.0257" r="0.287254" fill="#71717A"/>
<circle cx="36.1945" cy="23.0258" r="0.287254" fill="#71717A"/>
<circle cx="37.7741" cy="23.0258" r="0.287254" fill="#71717A"/>
<circle cx="39.3535" cy="23.0258" r="0.287254" fill="#71717A"/>
<circle cx="40.9331" cy="23.0258" r="0.287254" fill="#71717A"/>
<circle cx="42.5124" cy="23.0257" r="0.287254" fill="#71717A"/>
<circle cx="44.0919" cy="23.0257" r="0.287254" fill="#71717A"/>
<circle cx="45.6713" cy="23.0258" r="0.287254" fill="#71717A"/>
<circle cx="21.979" cy="24.354" r="0.287254" fill="#71717A"/>
<circle cx="23.5586" cy="24.354" r="0.287254" fill="#71717A"/>
<circle cx="25.138" cy="24.3539" r="0.287254" fill="#71717A"/>
<circle cx="26.7174" cy="24.3539" r="0.287254" fill="#71717A"/>
<circle cx="28.2969" cy="24.354" r="0.287254" fill="#71717A"/>
<circle cx="29.8765" cy="24.354" r="0.287254" fill="#71717A"/>
<circle cx="31.4558" cy="24.354" r="0.287254" fill="#71717A"/>
<circle cx="33.0354" cy="24.354" r="0.287254" fill="#71717A"/>
<circle cx="34.6151" cy="24.354" r="0.287254" fill="#71717A"/>
<circle cx="36.1945" cy="24.3539" r="0.287254" fill="#71717A"/>
<circle cx="37.7739" cy="24.3539" r="0.287254" fill="#71717A"/>
<circle cx="39.3534" cy="24.354" r="0.287254" fill="#71717A"/>
<circle cx="40.9329" cy="24.354" r="0.287254" fill="#71717A"/>
<circle cx="42.5125" cy="24.354" r="0.287254" fill="#71717A"/>
<circle cx="44.0919" cy="24.354" r="0.287254" fill="#71717A"/>
<circle cx="23.5587" cy="25.682" r="0.287254" fill="#71717A"/>
<circle cx="25.1383" cy="25.682" r="0.287254" fill="#71717A"/>
<circle cx="26.7177" cy="25.6819" r="0.287254" fill="#71717A"/>
<circle cx="28.2971" cy="25.6819" r="0.287254" fill="#71717A"/>
<circle cx="29.8765" cy="25.682" r="0.287254" fill="#71717A"/>
<circle cx="31.456" cy="25.682" r="0.287254" fill="#71717A"/>
<circle cx="33.0355" cy="25.682" r="0.287254" fill="#71717A"/>
<circle cx="34.6153" cy="25.682" r="0.287254" fill="#71717A"/>
<circle cx="36.1947" cy="25.6819" r="0.287254" fill="#71717A"/>
<circle cx="37.7742" cy="25.6819" r="0.287254" fill="#71717A"/>
<circle cx="39.3534" cy="25.682" r="0.287254" fill="#71717A"/>
<circle cx="40.933" cy="25.682" r="0.287254" fill="#71717A"/>
<circle cx="42.5126" cy="25.682" r="0.287254" fill="#71717A"/>
<circle cx="23.5587" cy="27.0104" r="0.287254" fill="#71717A"/>
<circle cx="25.1383" cy="27.0104" r="0.287254" fill="#71717A"/>
<circle cx="26.7177" cy="27.0103" r="0.287254" fill="#71717A"/>
<circle cx="28.2971" cy="27.0103" r="0.287254" fill="#71717A"/>
<circle cx="29.8765" cy="27.0104" r="0.287254" fill="#71717A"/>
<circle cx="31.456" cy="27.0104" r="0.287254" fill="#71717A"/>
<circle cx="33.0355" cy="27.0104" r="0.287254" fill="#71717A"/>
<circle cx="34.6153" cy="27.0104" r="0.287254" fill="#71717A"/>
<circle cx="36.1947" cy="27.0103" r="0.287254" fill="#71717A"/>
<circle cx="37.7742" cy="27.0103" r="0.287254" fill="#71717A"/>
<circle cx="39.3534" cy="27.0104" r="0.287254" fill="#71717A"/>
<circle cx="40.933" cy="27.0104" r="0.287254" fill="#71717A"/>
<circle cx="42.5126" cy="27.0104" r="0.287254" fill="#71717A"/>
<circle cx="23.5587" cy="28.3385" r="0.287254" fill="#71717A"/>
<circle cx="25.1383" cy="28.3385" r="0.287254" fill="#71717A"/>
<circle cx="26.7177" cy="28.3386" r="0.287254" fill="#71717A"/>
<circle cx="28.2971" cy="28.3386" r="0.287254" fill="#71717A"/>
<circle cx="29.8765" cy="28.3385" r="0.287254" fill="#71717A"/>
<circle cx="31.456" cy="28.3385" r="0.287254" fill="#71717A"/>
<circle cx="33.0355" cy="28.3385" r="0.287254" fill="#71717A"/>
<circle cx="34.6153" cy="28.3385" r="0.287254" fill="#71717A"/>
<circle cx="36.1947" cy="28.3386" r="0.287254" fill="#71717A"/>
<circle cx="37.7742" cy="28.3386" r="0.287254" fill="#71717A"/>
<circle cx="39.3534" cy="28.3385" r="0.287254" fill="#71717A"/>
<circle cx="40.933" cy="28.3385" r="0.287254" fill="#71717A"/>
<circle cx="42.5126" cy="28.3385" r="0.287254" fill="#71717A"/>
<circle cx="23.5587" cy="29.6665" r="0.287254" fill="#71717A"/>
<circle cx="25.1383" cy="29.6665" r="0.287254" fill="#71717A"/>
<circle cx="26.7177" cy="29.6666" r="0.287254" fill="#71717A"/>
<circle cx="28.2971" cy="29.6666" r="0.287254" fill="#71717A"/>
<circle cx="29.8765" cy="29.6665" r="0.287254" fill="#71717A"/>
<circle cx="31.456" cy="29.6665" r="0.287254" fill="#71717A"/>
<circle cx="33.0355" cy="29.6665" r="0.287254" fill="#71717A"/>
<circle cx="34.6153" cy="29.6665" r="0.287254" fill="#71717A"/>
<circle cx="36.1947" cy="29.6666" r="0.287254" fill="#71717A"/>
<circle cx="37.7742" cy="29.6666" r="0.287254" fill="#71717A"/>
<circle cx="39.3534" cy="29.6665" r="0.287254" fill="#71717A"/>
<circle cx="40.933" cy="29.6665" r="0.287254" fill="#71717A"/>
<circle cx="42.5126" cy="29.6665" r="0.287254" fill="#71717A"/>
<circle cx="24.3483" cy="30.9949" r="0.287254" fill="#71717A"/>
<circle cx="25.9279" cy="30.9949" r="0.287254" fill="#71717A"/>
<circle cx="27.5072" cy="30.9949" r="0.287254" fill="#71717A"/>
<circle cx="29.0867" cy="30.9949" r="0.287254" fill="#71717A"/>
<circle cx="30.6662" cy="30.9949" r="0.287254" fill="#71717A"/>
<circle cx="32.2455" cy="30.9949" r="0.287254" fill="#71717A"/>
<circle cx="33.8251" cy="30.9949" r="0.287254" fill="#71717A"/>
<circle cx="35.4048" cy="30.9949" r="0.287254" fill="#71717A"/>
<circle cx="36.9844" cy="30.9949" r="0.287254" fill="#71717A"/>
<circle cx="38.5637" cy="30.9949" r="0.287254" fill="#71717A"/>
<circle cx="40.1431" cy="30.9949" r="0.287254" fill="#71717A"/>
<circle cx="41.7226" cy="30.9949" r="0.287254" fill="#71717A"/>
</g>
</g>
</g>
</g>
<rect x="8.37148" y="5.42178" width="48.8368" height="48.8368" rx="8.96658" stroke="url(#paint3_linear_52_128)" stroke-width="0.245411" shape-rendering="crispEdges"/>
</g>
<defs>
<filter id="filter0_d_52_128" x="0.886456" y="0.390857" width="63.8068" height="63.8068" filterUnits="userSpaceOnUse" color-interpolation-filters="sRGB">
<feFlood flood-opacity="0" result="BackgroundImageFix"/>
<feColorMatrix in="SourceAlpha" type="matrix" values="0 0 0 0 0 0 0 0 0 0 0 0 0 0 0 0 0 0 127 0" result="hardAlpha"/>
<feOffset dy="2.45411"/>
<feGaussianBlur stdDeviation="3.68116"/>
<feComposite in2="hardAlpha" operator="out"/>
<feColorMatrix type="matrix" values="0 0 0 0 0 0 0 0 0 0 0 0 0 0 0 0 0 0 0.1 0"/>
<feBlend mode="normal" in2="BackgroundImageFix" result="effect1_dropShadow_52_128"/>
<feBlend mode="normal" in="SourceGraphic" in2="effect1_dropShadow_52_128" result="shape"/>
</filter>
<filter id="filter1_f_52_128" x="16.4948" y="1.48248" width="32.8179" height="25.8523" filterUnits="userSpaceOnUse" color-interpolation-filters="sRGB">
<feFlood flood-opacity="0" result="BackgroundImageFix"/>
<feBlend mode="normal" in="SourceGraphic" in2="BackgroundImageFix" result="shape"/>
<feGaussianBlur stdDeviation="3.48483" result="effect1_foregroundBlur_52_128"/>
</filter>
<filter id="filter2_d_52_128" x="16.5384" y="14.8974" width="32.9942" height="32.9942" filterUnits="userSpaceOnUse" color-interpolation-filters="sRGB">
<feFlood flood-opacity="0" result="BackgroundImageFix"/>
<feColorMatrix in="SourceAlpha" type="matrix" values="0 0 0 0 0 0 0 0 0 0 0 0 0 0 0 0 0 0 127 0" result="hardAlpha"/>
<feOffset dy="1.79968"/>
<feGaussianBlur stdDeviation="1.49973"/>
<feComposite in2="hardAlpha" operator="out"/>
<feColorMatrix type="matrix" values="0 0 0 0 0 0 0 0 0 0 0 0 0 0 0 0 0 0 0.1 0"/>
<feBlend mode="normal" in2="BackgroundImageFix" result="effect1_dropShadow_52_128"/>
<feBlend mode="normal" in="SourceGraphic" in2="effect1_dropShadow_52_128" result="shape"/>
</filter>
<filter id="filter3_i_52_128" x="19.5378" y="16.0972" width="26.9952" height="32.9942" filterUnits="userSpaceOnUse" color-interpolation-filters="sRGB">
<feFlood flood-opacity="0" result="BackgroundImageFix"/>
<feBlend mode="normal" in="SourceGraphic" in2="BackgroundImageFix" result="shape"/>
<feColorMatrix in="SourceAlpha" type="matrix" values="0 0 0 0 0 0 0 0 0 0 0 0 0 0 0 0 0 0 127 0" result="hardAlpha"/>
<feOffset dy="5.99893"/>
<feGaussianBlur stdDeviation="2.99947"/>
<feComposite in2="hardAlpha" operator="arithmetic" k2="-1" k3="1"/>
<feColorMatrix type="matrix" values="0 0 0 0 1 0 0 0 0 1 0 0 0 0 1 0 0 0 0.5 0"/>
<feBlend mode="normal" in2="shape" result="effect1_innerShadow_52_128"/>
</filter>
<linearGradient id="paint0_linear_52_128" x1="33.0354" y1="16.0972" x2="33.0354" y2="43.0924" gradientUnits="userSpaceOnUse">
<stop stop-color="#FACC15"/>
<stop offset="1" stop-color="#EAB308"/>
</linearGradient>
<linearGradient id="paint1_linear_52_128" x1="33.0354" y1="16.0972" x2="33.0354" y2="43.0924" gradientUnits="userSpaceOnUse">
<stop stop-color="white"/>
<stop offset="1" stop-color="white" stop-opacity="0"/>
</linearGradient>
<linearGradient id="paint2_linear_52_128" x1="33.0354" y1="16.0972" x2="33.0354" y2="43.0924" gradientUnits="userSpaceOnUse">
<stop stop-color="#FACC15"/>
<stop offset="1" stop-color="#EAB308"/>
</linearGradient>
<linearGradient id="paint3_linear_52_128" x1="8.24878" y1="5.29907" x2="32.7899" y2="29.8402" gradientUnits="userSpaceOnUse">
<stop stop-color="#FACC15"/>
<stop offset="1" stop-color="#FFD017" stop-opacity="0"/>
</linearGradient>
<clipPath id="clip0_52_128">
<rect x="8.24878" y="5.29907" width="49.0822" height="49.0822" rx="9.08929" fill="white"/>
</clipPath>
</defs>
</svg>
