<svg width="36" height="32" viewBox="0 0 36 32" fill="none" xmlns="http://www.w3.org/2000/svg">
<path d="M28.8097 7.73354C27.5734 7.73354 26.4107 8.23627 25.5366 9.14885L20.8103 14.0846C20.4786 14.4321 19.9002 14.431 19.5685 14.0846L14.8251 9.13074C13.9508 8.21831 12.7881 7.71559 11.5518 7.71559H10.6205L16.6062 1.46418C18.4757 -0.48806 21.5066 -0.48806 23.3761 1.46418L29.3791 7.73354H28.8097Z" fill="#32BCAD"/>
<path d="M11.5515 24.2896C12.7878 24.2896 13.9505 23.787 14.8247 22.875L19.5682 17.9234C19.9098 17.5668 20.4677 17.5653 20.8102 17.9239L25.5363 22.8571C26.4106 23.7691 27.5733 24.2715 28.8097 24.2715H29.3789L23.3759 30.5369C21.5064 32.4881 18.4754 32.4881 16.606 30.5369L10.6203 24.2896H11.5515Z" fill="#32BCAD"/>
<path d="M34.5761 19.4555L30.8921 23.1583C30.811 23.1256 30.7232 23.1052 30.6305 23.1052H28.9557C28.0896 23.1052 27.242 22.7523 26.6301 22.1369L21.8304 17.3127C21.3814 16.8613 20.7913 16.6353 20.2016 16.6353C19.6115 16.6353 19.0218 16.8613 18.5726 17.3122L13.755 22.1544C13.143 22.7698 12.2955 23.1227 11.4295 23.1227H9.36993C9.28219 23.1227 9.20001 23.1436 9.1225 23.173L5.42389 19.4555C3.52537 17.5475 3.52537 14.4537 5.42389 12.5454L9.12234 8.82812C9.19986 8.85747 9.28219 8.87835 9.36993 8.87835H11.4295C12.2955 8.87835 13.143 9.23127 13.755 9.84666L18.5722 14.6884C19.4429 15.5627 20.9606 15.5632 21.8304 14.6879L26.6301 9.86436C27.242 9.24882 28.0896 8.8959 28.9557 8.8959H30.6305C30.7234 8.8959 30.811 8.87563 30.8923 8.84295L34.5761 12.5454C36.4746 14.4537 36.4746 17.5475 34.5761 19.4555Z" fill="#32BCAD"/>
</svg>
